<svg width="101" height="101" viewBox="0 0 101 101" fill="none" xmlns="http://www.w3.org/2000/svg">
<g id="Group 151">
<g id="Ellipse 34" filter="url(#filter0_i_312_6794)">
<circle cx="50.3408" cy="50.3115" r="50" fill="#FEF2EA"/>
</g>
<ellipse id="Ellipse 35" cx="50.3404" cy="46.4301" rx="40.8844" ry="38.621" fill="#FDD868"/>
<g id="Ellipse 36" filter="url(#filter1_i_312_6794)">
<circle cx="50.0299" cy="50.3114" r="39.0123" fill="url(#paint0_linear_312_6794)"/>
</g>
<g id="Audio Icon" filter="url(#filter2_d_312_6794)">
<path fill-rule="evenodd" clip-rule="evenodd" d="M72.9056 50.189C72.9056 57.6507 70.545 64.7604 66.2349 70.6591C65.7165 71.3685 64.7212 71.5234 64.0118 71.005C63.3024 70.4867 63.1475 69.4913 63.6659 68.7819C67.5811 63.4237 69.7238 56.9701 69.7238 50.189C69.7238 43.5076 67.6438 37.1433 63.8347 31.8294C63.3228 31.1153 63.4867 30.1214 64.2008 29.6095C64.9149 29.0976 65.9088 29.2616 66.4207 29.9757C70.6141 35.8257 72.9056 42.8371 72.9056 50.189ZM59.3347 66.1784C62.3494 61.8709 63.9949 56.7208 63.9949 51.3244C63.9949 45.8752 62.317 40.6778 59.2474 36.3465C58.7394 35.6296 57.7464 35.4603 57.0296 35.9683C56.3127 36.4763 56.1434 37.4693 56.6514 38.1862C59.3424 41.9834 60.813 46.5389 60.813 51.3244C60.813 56.0637 59.3708 60.5777 56.7279 64.354C56.2241 65.0738 56.3993 66.0658 57.1191 66.5696C57.839 67.0734 58.8309 66.8982 59.3347 66.1784ZM30.9051 44.6226L39.0353 37.4384C40.3264 36.2976 42.3596 37.2142 42.3596 38.9371V62.9602C42.3596 64.6831 40.3264 65.5997 39.0353 64.4589L30.9058 57.2753H23.3604C22.2558 57.2753 21.3604 56.3799 21.3604 55.2753V46.6232C21.3604 45.5186 22.2558 44.6232 23.3604 44.6232H30.9051V44.6226ZM55.452 51.3265C55.452 54.8752 54.3516 58.2626 52.3369 61.0939C51.8275 61.8098 50.8342 61.9772 50.1183 61.4678C49.4024 60.9583 49.235 59.965 49.7444 59.2492C51.3789 56.9523 52.2702 54.2085 52.2702 51.3265C52.2702 48.3977 51.3495 45.6119 49.6653 43.2939C49.1488 42.583 49.3064 41.5881 50.0172 41.0717C50.728 40.5552 51.7229 40.7128 52.2394 41.4236C54.3154 44.2808 55.452 47.7201 55.452 51.3265Z" fill="#F8F8F8"/>
</g>
<ellipse id="Ellipse 37" cx="5.31606" cy="3.74415" rx="5.31606" ry="3.74415" transform="matrix(0.621016 0.783798 -0.781139 0.624358 78.7559 22.1001)" fill="white"/>
<ellipse id="Ellipse 38" cx="1.79485" cy="0.786494" rx="1.79485" ry="0.786494" transform="matrix(0.65471 0.75588 -0.752127 0.659018 74.6289 20.2246)" fill="white"/>
</g>
<defs>
<filter id="filter0_i_312_6794" x="0.34082" y="0.311523" width="100" height="100" filterUnits="userSpaceOnUse" color-interpolation-filters="sRGB">
<feFlood flood-opacity="0" result="BackgroundImageFix"/>
<feBlend mode="normal" in="SourceGraphic" in2="BackgroundImageFix" result="shape"/>
<feColorMatrix in="SourceAlpha" type="matrix" values="0 0 0 0 0 0 0 0 0 0 0 0 0 0 0 0 0 0 127 0" result="hardAlpha"/>
<feOffset dx="-3" dy="-4"/>
<feComposite in2="hardAlpha" operator="arithmetic" k2="-1" k3="1"/>
<feColorMatrix type="matrix" values="0 0 0 0 0.956863 0 0 0 0 0.74902 0 0 0 0 0.603922 0 0 0 0.5 0"/>
<feBlend mode="normal" in2="shape" result="effect1_innerShadow_312_6794"/>
</filter>
<filter id="filter1_i_312_6794" x="11.0176" y="11.2991" width="78.0244" height="78.0247" filterUnits="userSpaceOnUse" color-interpolation-filters="sRGB">
<feFlood flood-opacity="0" result="BackgroundImageFix"/>
<feBlend mode="normal" in="SourceGraphic" in2="BackgroundImageFix" result="shape"/>
<feColorMatrix in="SourceAlpha" type="matrix" values="0 0 0 0 0 0 0 0 0 0 0 0 0 0 0 0 0 0 127 0" result="hardAlpha"/>
<feOffset dx="-2.5" dy="-2.5"/>
<feComposite in2="hardAlpha" operator="arithmetic" k2="-1" k3="1"/>
<feColorMatrix type="matrix" values="0 0 0 0 0.976471 0 0 0 0 0.360784 0 0 0 0 0.0313726 0 0 0 1 0"/>
<feBlend mode="normal" in2="shape" result="effect1_innerShadow_312_6794"/>
</filter>
<filter id="filter2_d_312_6794" x="21.3604" y="29.3115" width="51.5454" height="44" filterUnits="userSpaceOnUse" color-interpolation-filters="sRGB">
<feFlood flood-opacity="0" result="BackgroundImageFix"/>
<feColorMatrix in="SourceAlpha" type="matrix" values="0 0 0 0 0 0 0 0 0 0 0 0 0 0 0 0 0 0 127 0" result="hardAlpha"/>
<feOffset dy="2"/>
<feComposite in2="hardAlpha" operator="out"/>
<feColorMatrix type="matrix" values="0 0 0 0 0.976471 0 0 0 0 0.360784 0 0 0 0 0.0313726 0 0 0 1 0"/>
<feBlend mode="normal" in2="BackgroundImageFix" result="effect1_dropShadow_312_6794"/>
<feBlend mode="normal" in="SourceGraphic" in2="effect1_dropShadow_312_6794" result="shape"/>
</filter>
<linearGradient id="paint0_linear_312_6794" x1="11.0176" y1="14.0856" x2="83.3269" y2="89.3237" gradientUnits="userSpaceOnUse">
<stop stop-color="#FEB830"/>
<stop offset="1" stop-color="#FB8D40"/>
</linearGradient>
</defs>
</svg>
