<svg width="61" height="61" viewBox="0 0 61 61" fill="none" xmlns="http://www.w3.org/2000/svg">
<g filter="url(#filter0_i_312_6795)">
<circle cx="30.3408" cy="30.3115" r="30" fill="#FEF2EA"/>
</g>
<ellipse cx="30.3402" cy="27.9829" rx="24.5306" ry="23.1726" fill="#FDD868"/>
<g filter="url(#filter1_i_312_6795)">
<circle cx="30.1545" cy="30.3117" r="23.4074" fill="url(#paint0_linear_312_6795)"/>
</g>
<ellipse cx="3.1897" cy="2.24654" rx="3.1897" ry="2.24654" transform="matrix(0.621016 0.783798 -0.781139 0.624358 47.3896 13.3848)" fill="white"/>
<ellipse cx="1.07693" cy="0.471906" rx="1.07693" ry="0.471906" transform="matrix(0.65471 0.75588 -0.752127 0.659018 44.9131 12.2593)" fill="white"/>
<g filter="url(#filter2_d_312_6795)">
<path d="M44.3409 22.5933C44.1605 22.9398 43.8924 23.021 43.5198 22.9724C42.408 22.817 41.3853 23.0763 40.4875 23.7899C40.3524 23.8968 40.2567 23.9173 40.1011 23.8399C39.8162 23.6981 39.5167 23.5882 39.1777 23.4456C39.3815 23.2598 39.5664 23.071 39.7716 22.9095C40.9726 21.9601 42.3284 21.6363 43.812 21.8608C44.0633 21.8987 44.2124 22.0556 44.3409 22.2566V22.5933Z" fill="white"/>
</g>
<g filter="url(#filter3_d_312_6795)">
<path d="M30.6798 29.6958C30.5863 28.5212 30.3335 27.433 29.8083 26.429C28.7915 24.4862 27.1785 23.486 25.0849 23.3472C23.4376 23.2381 21.9174 23.6665 20.65 24.8214C18.8902 26.4244 18.5257 29.0846 19.7866 30.9803C21.2096 33.1203 24.1842 33.6344 26.0849 32.067C27.5058 30.8962 27.7315 28.8821 26.5912 27.5543C26.1992 27.1078 25.6886 26.7919 25.1239 26.6464C24.5591 26.5009 23.9654 26.5324 23.4179 26.7369C23.0629 26.8726 22.9065 27.1608 23.0154 27.4838C23.1242 27.8068 23.4186 27.9342 23.7744 27.8175C24.8555 27.4641 25.9264 28.0275 26.1741 29.0808C26.375 29.9369 25.9177 30.9098 25.09 31.3883C24.469 31.7478 23.7544 31.8943 23.0484 31.8067C22.3423 31.7191 21.6811 31.402 21.1592 30.9007C20.1102 29.8854 19.837 28.3445 20.471 26.9439C21.0554 25.6449 22.0979 24.9351 23.4025 24.6227C25.1557 24.2019 26.7555 24.5006 28.0712 25.8633C28.8674 26.6868 29.2349 27.7378 29.4701 28.8541C30.0676 31.6863 28.4386 33.9029 26.2303 34.9046C22.1315 36.7647 17.3489 34.1463 16.5833 29.5714C16.1801 27.1585 16.9296 25.0701 18.4863 23.2843C19.9853 21.5637 21.8919 20.6014 24.0885 20.3337C28.2713 19.8249 31.4176 21.6297 33.7413 25.1634C34.1351 25.7617 34.119 25.7625 33.7684 26.3888C33.0868 27.6074 32.2431 28.6706 31.0852 29.4357C30.9632 29.5161 30.8398 29.5934 30.6798 29.6958Z" fill="white"/>
</g>
<g filter="url(#filter4_d_312_6795)">
<path d="M25.7121 38.7807H17.1572C17.0659 38.7807 16.9746 38.7807 16.884 38.7807C16.7737 38.7906 16.6634 38.7612 16.5712 38.6974C16.4791 38.6336 16.4106 38.5392 16.377 38.4296C16.336 38.3276 16.3296 38.2142 16.359 38.1079C16.3883 38.0016 16.4516 37.9089 16.5385 37.845C17.0973 37.3763 17.6547 36.9039 18.231 36.4588C18.5802 36.1881 18.9681 35.9727 19.3268 35.7164C19.4729 35.6102 19.5898 35.6269 19.7454 35.7043C22.6849 37.1686 25.5163 36.9608 28.1885 35.0218C29.4304 34.1202 30.2142 32.847 30.5707 31.3023C30.6028 31.1643 30.6883 30.9876 30.7986 30.9292C32.5708 29.9882 33.8667 28.5588 34.8164 26.7661C34.9084 26.5925 35.0121 26.4249 35.0976 26.2482C35.9282 24.5367 37.6923 24.1462 39.1577 24.6611C41.0432 25.3231 41.8759 27.1786 41.2389 29.2663C41.0029 30.0147 40.6002 30.6948 40.0636 31.2515C39.2951 32.0765 38.6668 32.9956 38.3666 34.1209C38.2358 34.6108 38.154 35.1151 38.0481 35.6133C37.6142 37.6546 36.3891 38.7307 34.3729 38.764C32.3414 38.7974 30.3099 38.7769 28.2784 38.7792L25.7121 38.7807Z" fill="white"/>
</g>
<g filter="url(#filter5_d_312_6795)">
<path d="M37.8659 23.2879L36.803 23.4396C36.7493 22.6949 36.8631 21.9476 37.1354 21.2564C37.4829 20.3455 38.0639 19.5506 38.8155 18.958C39.1245 18.7085 39.4606 18.7305 39.6607 18.9982C39.8609 19.2659 39.7915 19.5942 39.5015 19.8384C38.4839 20.6945 37.9133 21.7842 37.8834 23.1582C37.879 23.1954 37.8717 23.2326 37.8659 23.2879Z" fill="white"/>
</g>
<defs>
<filter id="filter0_i_312_6795" x="0.34082" y="0.311523" width="60" height="60" filterUnits="userSpaceOnUse" color-interpolation-filters="sRGB">
<feFlood flood-opacity="0" result="BackgroundImageFix"/>
<feBlend mode="normal" in="SourceGraphic" in2="BackgroundImageFix" result="shape"/>
<feColorMatrix in="SourceAlpha" type="matrix" values="0 0 0 0 0 0 0 0 0 0 0 0 0 0 0 0 0 0 127 0" result="hardAlpha"/>
<feOffset dx="-2" dy="-3"/>
<feComposite in2="hardAlpha" operator="arithmetic" k2="-1" k3="1"/>
<feColorMatrix type="matrix" values="0 0 0 0 0.956863 0 0 0 0 0.74902 0 0 0 0 0.603922 0 0 0 0.5 0"/>
<feBlend mode="normal" in2="shape" result="effect1_innerShadow_312_6795"/>
</filter>
<filter id="filter1_i_312_6795" x="6.74707" y="6.9043" width="46.8149" height="46.8147" filterUnits="userSpaceOnUse" color-interpolation-filters="sRGB">
<feFlood flood-opacity="0" result="BackgroundImageFix"/>
<feBlend mode="normal" in="SourceGraphic" in2="BackgroundImageFix" result="shape"/>
<feColorMatrix in="SourceAlpha" type="matrix" values="0 0 0 0 0 0 0 0 0 0 0 0 0 0 0 0 0 0 127 0" result="hardAlpha"/>
<feOffset dx="-2" dy="-2"/>
<feComposite in2="hardAlpha" operator="arithmetic" k2="-1" k3="1"/>
<feColorMatrix type="matrix" values="0 0 0 0 0.976471 0 0 0 0 0.360784 0 0 0 0 0.0313726 0 0 0 1 0"/>
<feBlend mode="normal" in2="shape" result="effect1_innerShadow_312_6795"/>
</filter>
<filter id="filter2_d_312_6795" x="39.1777" y="21.7925" width="5.16309" height="3.09399" filterUnits="userSpaceOnUse" color-interpolation-filters="sRGB">
<feFlood flood-opacity="0" result="BackgroundImageFix"/>
<feColorMatrix in="SourceAlpha" type="matrix" values="0 0 0 0 0 0 0 0 0 0 0 0 0 0 0 0 0 0 127 0" result="hardAlpha"/>
<feOffset dy="1"/>
<feComposite in2="hardAlpha" operator="out"/>
<feColorMatrix type="matrix" values="0 0 0 0 0.976471 0 0 0 0 0.360784 0 0 0 0 0.0313726 0 0 0 1 0"/>
<feBlend mode="normal" in2="BackgroundImageFix" result="effect1_dropShadow_312_6795"/>
<feBlend mode="normal" in="SourceGraphic" in2="effect1_dropShadow_312_6795" result="shape"/>
</filter>
<filter id="filter3_d_312_6795" x="16.4756" y="20.249" width="17.5586" height="16.2598" filterUnits="userSpaceOnUse" color-interpolation-filters="sRGB">
<feFlood flood-opacity="0" result="BackgroundImageFix"/>
<feColorMatrix in="SourceAlpha" type="matrix" values="0 0 0 0 0 0 0 0 0 0 0 0 0 0 0 0 0 0 127 0" result="hardAlpha"/>
<feOffset dy="1"/>
<feComposite in2="hardAlpha" operator="out"/>
<feColorMatrix type="matrix" values="0 0 0 0 0.976471 0 0 0 0 0.360784 0 0 0 0 0.0313726 0 0 0 1 0"/>
<feBlend mode="normal" in2="BackgroundImageFix" result="effect1_dropShadow_312_6795"/>
<feBlend mode="normal" in="SourceGraphic" in2="effect1_dropShadow_312_6795" result="shape"/>
</filter>
<filter id="filter4_d_312_6795" x="16.3408" y="24.4502" width="25.1094" height="15.3333" filterUnits="userSpaceOnUse" color-interpolation-filters="sRGB">
<feFlood flood-opacity="0" result="BackgroundImageFix"/>
<feColorMatrix in="SourceAlpha" type="matrix" values="0 0 0 0 0 0 0 0 0 0 0 0 0 0 0 0 0 0 127 0" result="hardAlpha"/>
<feOffset dy="1"/>
<feComposite in2="hardAlpha" operator="out"/>
<feColorMatrix type="matrix" values="0 0 0 0 0.976471 0 0 0 0 0.360784 0 0 0 0 0.0313726 0 0 0 1 0"/>
<feBlend mode="normal" in2="BackgroundImageFix" result="effect1_dropShadow_312_6795"/>
<feBlend mode="normal" in="SourceGraphic" in2="effect1_dropShadow_312_6795" result="shape"/>
</filter>
<filter id="filter5_d_312_6795" x="36.79" y="18.7834" width="2.98486" height="5.65601" filterUnits="userSpaceOnUse" color-interpolation-filters="sRGB">
<feFlood flood-opacity="0" result="BackgroundImageFix"/>
<feColorMatrix in="SourceAlpha" type="matrix" values="0 0 0 0 0 0 0 0 0 0 0 0 0 0 0 0 0 0 127 0" result="hardAlpha"/>
<feOffset dy="1"/>
<feComposite in2="hardAlpha" operator="out"/>
<feColorMatrix type="matrix" values="0 0 0 0 0.976471 0 0 0 0 0.360784 0 0 0 0 0.0313726 0 0 0 1 0"/>
<feBlend mode="normal" in2="BackgroundImageFix" result="effect1_dropShadow_312_6795"/>
<feBlend mode="normal" in="SourceGraphic" in2="effect1_dropShadow_312_6795" result="shape"/>
</filter>
<linearGradient id="paint0_linear_312_6795" x1="6.74707" y1="8.57623" x2="50.1327" y2="53.7191" gradientUnits="userSpaceOnUse">
<stop stop-color="#FEB830"/>
<stop offset="1" stop-color="#FB8D40"/>
</linearGradient>
</defs>
</svg>
