<svg width="45" height="43" viewBox="0 0 45 43" fill="none" xmlns="http://www.w3.org/2000/svg">
<g id="Graph" clip-path="url(#clip0_1896_1196)">
<path id="Vector" d="M37.6797 11.3445C37.8645 11.2372 38.0674 11.2689 38.2643 11.2689C39.5178 11.2689 40.7721 11.3049 42.0239 11.2671C43.0857 11.2355 43.8439 11.6195 44.2214 12.6688C44.2214 22.1841 44.2214 31.7003 44.2214 41.2157C43.7855 42.2509 42.9919 42.6208 41.9285 42.5391C41.404 42.4987 40.8744 42.5233 40.3474 42.518C39.3811 42.3247 38.891 41.7807 38.7776 40.7728C38.7612 40.6269 38.7595 40.481 38.7595 40.3343C38.7586 31.3787 38.7595 22.4231 38.7578 13.4676C38.7578 12.6477 38.9848 11.9473 39.7018 11.4754C39.1799 11.5009 38.6692 11.4895 38.1586 11.4851C37.9883 11.4842 37.8095 11.4938 37.6797 11.3445Z" fill="#213782"/>
<path id="Vector_2" d="M4.2527 42.5199C3.49872 42.5243 2.74388 42.5375 1.98989 42.5296C1.10266 42.5191 0.573064 41.9883 0.221436 41.215C0.221436 36.1497 0.221436 31.0845 0.221436 26.0193C0.513743 25.3118 0.938448 24.7617 1.75433 24.6818C2.52293 24.6326 3.29066 24.6703 4.06958 24.658C4.10139 24.8742 3.96297 24.9489 3.85292 25.0183C3.20641 25.4234 3.01125 26.036 3.01383 26.775C3.02329 30.0045 3.01813 33.2348 3.01813 36.4643C3.01813 37.7799 3.0336 39.0954 3.01297 40.41C3.00007 41.2343 3.28035 41.8582 4.01713 42.2405C4.12632 42.2994 4.25614 42.3539 4.2527 42.5199Z" fill="#B90202"/>
<path id="Vector_3" d="M32.1165 0.550049C33.1181 0.551806 33.8763 1.40949 33.7345 2.32956C33.3003 5.15833 32.8455 7.98358 32.4079 10.8123C32.3589 11.1278 32.254 11.3783 31.9471 11.4872C31.6161 11.6059 31.372 11.4468 31.1476 11.2113C30.7177 10.7614 30.2724 10.3255 29.8468 9.87118C29.7041 9.71827 29.5949 9.70157 29.4101 9.80351C26.15 11.5971 22.699 12.837 19.0512 13.497C14.9555 14.2378 10.8803 14.1631 6.83017 13.1718C5.94465 12.9548 5.58099 12.3476 5.77013 11.4398C5.85352 11.0399 5.93262 10.6383 6.02719 10.2411C6.19655 9.53109 6.74506 9.13652 7.45519 9.19452C11.9155 9.5557 16.1651 8.72702 20.2247 6.82623C21.5926 6.18561 22.9002 5.4369 24.1606 4.59679C24.3901 4.44388 24.4615 4.33843 24.2216 4.11962C23.8906 3.8182 23.5949 3.47724 23.2742 3.16351C23.0567 2.95173 22.9595 2.7004 23.0429 2.41129C23.128 2.11866 23.3464 1.97717 23.6464 1.92972C25.5671 1.62127 27.486 1.30228 29.4058 0.988556C30.3368 0.836528 31.2679 0.687137 32.1165 0.550049Z" fill="#FFA300"/>
<path id="Vector_4" d="M28.3239 15.8301C29.0582 15.6693 29.8027 15.7361 30.5403 15.7528C31.5006 15.7757 32.197 16.5367 32.1979 17.52C32.2005 25.2611 32.2005 33.0031 32.1979 40.7442C32.1979 41.7398 31.4877 42.4938 30.5016 42.5246C29.7726 42.5474 29.0418 42.5228 28.3119 42.5193C27.3774 42.3251 26.9742 41.8954 26.8048 40.9235C26.7498 40.6053 26.7249 40.2864 26.7249 39.9638C26.7257 32.7412 26.7257 25.5186 26.7249 18.2969C26.7249 17.8408 26.7739 17.3926 26.8925 16.9532C27.049 16.3785 27.6723 15.6816 28.3239 15.8301Z" fill="#2F7FEC"/>
<path id="Vector_5" d="M17.049 20.2277C17.8219 20.2233 18.5948 20.1961 19.3668 20.2198C20.1199 20.2426 20.7759 20.8534 20.9195 21.6223C20.959 21.8359 20.9676 22.0582 20.9676 22.277C20.9702 28.3352 20.9693 34.3935 20.9693 40.4517C20.9693 41.8261 20.2798 42.5327 18.9361 42.5327C18.3351 42.5327 17.7342 42.5239 17.1332 42.5195C16.1299 42.3727 15.5453 41.6961 15.5445 40.6398C15.5393 34.4664 15.541 28.2931 15.5427 22.1197C15.5427 22.0608 15.5419 22.1346 15.5427 22.0758C15.5608 21.0072 16.0483 20.4096 17.049 20.2277Z" fill="#56CBF1"/>
<path id="Vector_6" d="M4.25288 42.5206C3.78863 42.2921 3.33555 42.0505 3.08881 41.5478C2.93836 41.2402 2.88161 40.9186 2.88247 40.5741C2.88763 36.0221 2.89709 31.4709 2.87646 26.9189C2.87216 25.9602 3.10084 25.1939 4.00012 24.6842C3.2513 24.6842 2.50333 24.6842 1.75537 24.6842C2.56437 24.5603 3.37854 24.6473 4.18926 24.6323C4.90455 24.6192 5.62071 24.6411 6.33686 24.6499C7.45279 24.6631 8.19817 25.4162 8.19989 26.5533C8.20333 31.2372 8.20333 35.921 8.20075 40.6058C8.19989 41.749 7.46998 42.5145 6.35835 42.5311C5.65595 42.5408 4.95442 42.525 4.25288 42.5206Z" fill="#EA5757"/>
<path id="Vector_7" d="M38.6603 11.55C39.4607 11.55 40.2619 11.55 41.193 11.55C40.1158 12.0307 39.8665 12.841 39.8682 13.8524C39.8837 22.7008 39.8845 31.5483 39.8673 40.3966C39.8656 41.5329 40.2267 42.3501 41.328 42.7245C40.5981 42.7297 39.8682 42.7429 39.1383 42.7377C37.9433 42.7289 37.2245 41.9802 37.2245 40.7534C37.2237 32.7768 37.2237 24.801 37.2237 16.8244C37.2237 15.668 37.2176 14.5124 37.2254 13.3559C37.2323 12.4121 37.7859 11.7258 38.6603 11.55Z" fill="#182C66"/>
<path id="Vector_8" d="M28.3242 15.8308C27.6312 15.9556 27.0819 16.4802 26.9624 17.1665C26.9073 17.4811 26.8738 17.8036 26.8738 18.1226C26.8687 25.4718 26.8712 32.8201 26.8678 40.1693C26.8678 40.5225 26.9159 40.8688 26.9925 41.208C27.1549 41.9277 27.7052 42.2581 28.313 42.5191C27.5831 42.5235 26.8532 42.5367 26.1233 42.5305C24.9549 42.5208 24.2362 41.7721 24.2353 40.5682C24.2327 36.895 24.2344 33.2217 24.2344 29.5484C24.2344 25.6265 24.2344 21.7045 24.2344 17.7826C24.2344 16.4618 24.9325 15.7438 26.2153 15.7429C26.7878 15.742 27.3604 15.7377 27.933 15.7473C28.0637 15.75 28.2227 15.67 28.3242 15.8308Z" fill="#006ADC"/>
<path id="Vector_9" d="M17.049 20.2277C15.9692 20.5933 15.658 21.3464 15.6623 22.3438C15.6881 28.3511 15.695 34.3583 15.6571 40.3647C15.6502 41.4852 16.1893 42.2436 17.1324 42.5186C16.3312 42.523 15.529 42.5476 14.7286 42.5256C13.6995 42.4966 12.9988 41.74 12.9988 40.6881C12.9971 34.4699 12.9971 28.2526 12.9988 22.0345C12.9988 20.9562 13.7184 20.2172 14.7742 20.211C15.5325 20.2066 16.2907 20.2215 17.049 20.2277Z" fill="#03AFD7"/>
</g>
<defs>
<clipPath id="clip0_1896_1196">
<rect width="44" height="42" fill="white" transform="translate(0.221436 0.550049)"/>
</clipPath>
</defs>
</svg>
